<svg aria-hidden="true" style="position: absolute; width: 0; height: 0; overflow: hidden;" version="1.1" xmlns="http://www.w3.org/2000/svg" xmlns:xlink="http://www.w3.org/1999/xlink">
<defs>
<symbol id="icon-logo" viewBox="0 0 33 32">
<path fill="#ec5863" style="fill: var(--color1, #ec5863)" d="M11.377 3.991c1.14-0.4 2.392 0.139 2.797 1.203 0.31 0.815 0.033 1.7-0.625 2.25l0.355 0.969 0.565 0.652c0.129 0.149 0.325 0.221 0.521 0.196 0.529-0.065 1.054-0.068 1.569-0.013 0.174 0.019 0.348-0.039 0.473-0.161l0.408-0.395 0.301-0.875c-0.256-0.351-0.342-0.816-0.191-1.258 0.257-0.749 1.098-1.136 1.846-0.829 0.644 0.264 0.995 0.98 0.806 1.647-0.12 0.425-0.423 0.743-0.796 0.9l-0.333 0.97 0.076 0.535c0.026 0.184 0.135 0.344 0.295 0.44 0.536 0.325 1.028 0.723 1.46 1.182 0.145 0.155 0.362 0.221 0.57 0.179l1.072-0.215 1.211-0.672c0.006-0.595 0.324-1.171 0.885-1.482 0.847-0.47 1.92-0.154 2.371 0.706 0.407 0.776 0.152 1.752-0.586 2.229-0.576 0.372-1.279 0.359-1.822 0.041l-1.218 0.675-0.68 0.722c-0.183 0.194-0.248 0.468-0.178 0.725 0 0.002 0.001 0.003 0.001 0.004 0.119 0.442 0.192 0.887 0.221 1.327 0.017 0.262 0.166 0.499 0.399 0.624l0.888 0.479 1.76 0.332c0.31-0.27 0.737-0.401 1.174-0.319 0.783 0.148 1.287 0.923 1.086 1.703-0.173 0.668-0.831 1.112-1.519 1.025-0.469-0.060-0.848-0.342-1.052-0.721l-1.771-0.334-1.092 0.133c-0.201 0.025-0.377 0.151-0.459 0.335-0.327 0.728-0.778 1.397-1.335 1.975-0.138 0.144-0.19 0.349-0.14 0.542l0.271 1.048 0.67 1.048c0.737-0.11 1.504 0.208 1.93 0.873 0.572 0.894 0.313 2.078-0.578 2.655s-2.101 0.326-2.684-0.557c-0.408-0.618-0.413-1.381-0.082-1.986l-0.712-1.112-0.875-0.718c-0.13-0.107-0.306-0.135-0.464-0.079-0.175 0.062-0.354 0.118-0.537 0.167-0.994 0.265-1.996 0.299-2.95 0.137-0.14-0.023-0.283 0.016-0.39 0.109l-0.469 0.407-0.349 0.857c0.236 0.365 0.297 0.834 0.121 1.266-0.299 0.734-1.16 1.074-1.889 0.727-0.628-0.299-0.938-1.034-0.713-1.689 0.144-0.417 0.463-0.718 0.845-0.855l0.387-0.95-0.072-0.835c-0.698-0.436-1.318-0.994-1.826-1.655l-1.193 0.117-1.117 0.55c0.007 0.747-0.378 1.457-1.055 1.801-0.956 0.486-2.13 0.056-2.622-0.961s-0.117-2.233 0.839-2.718c0.715-0.363 1.553-0.214 2.135 0.31l1.053-0.52 0.731-0.781c0.048-0.051 0.065-0.123 0.047-0.19l-0-0.001c-0.338-1.254-0.303-2.521 0.036-3.685 0.018-0.064 0.004-0.133-0.039-0.184l-0.63-0.751-1.358-0.711c-0.374 0.164-0.818 0.164-1.208-0.041-0.705-0.369-0.959-1.255-0.539-1.942 0.369-0.603 1.154-0.831 1.792-0.522 0.413 0.2 0.679 0.574 0.758 0.987l1.358 0.711 0.967 0.091c0.067 0.006 0.133-0.022 0.175-0.074 0.438-0.54 0.96-1.017 1.553-1.408 0.163-0.108 0.264-0.286 0.266-0.481l0.010-0.875-0.379-1.032c-0.822-0.059-1.565-0.555-1.859-1.329-0.405-1.064 0.191-2.25 1.331-2.65z"></path>
<path fill="#f58a97" style="fill: var(--color2, #f58a97)" d="M20.792 14.781c-0.734-2.722-3.547-4.338-6.284-3.608s-4.362 3.528-3.628 6.25c0.733 2.722 3.547 4.338 6.284 3.608s4.362-3.528 3.628-6.25z"></path>
<path fill="#f07281" style="fill: var(--color3, #f07281)" d="M16.759 19.529c-2.481 0.661-5.024-0.604-6.025-2.872 0.028 0.255 0.076 0.511 0.145 0.766 0.733 2.722 3.547 4.338 6.284 3.608s4.362-3.528 3.628-6.25c-0.069-0.255-0.156-0.501-0.26-0.736 0.274 2.463-1.293 4.822-3.774 5.483z"></path>
<path fill="#eb5569" style="fill: var(--color4, #eb5569)" d="M9.059 26.797c-0.209-0.775-1.010-1.235-1.79-1.028s-1.242 1.005-1.033 1.78c0.209 0.775 1.010 1.235 1.79 1.028s1.242-1.005 1.033-1.78z"></path>
<path fill="#eb5569" style="fill: var(--color4, #eb5569)" d="M27.288 22.35c-0.138-0.512-0.667-0.816-1.182-0.679s-0.82 0.664-0.682 1.176c0.138 0.512 0.667 0.816 1.182 0.679s0.82-0.664 0.682-1.176z"></path>
<path fill="#eb5569" style="fill: var(--color4, #eb5569)" d="M24.674 4.802c-0.203-0.754-0.983-1.202-1.741-1s-1.208 0.977-1.005 1.732c0.203 0.754 0.983 1.202 1.741 1s1.208-0.977 1.005-1.732z"></path>
<path fill="#eb5569" style="fill: var(--color4, #eb5569)" d="M16.156 17.638c-0.189-0.703-0.916-1.12-1.623-0.932s-1.127 0.911-0.937 1.614c0.19 0.703 0.916 1.12 1.623 0.932s1.127-0.911 0.937-1.614z"></path>
<path fill="#eb5569" style="fill: var(--color4, #eb5569)" d="M19.449 15.665c-0.129-0.479-0.624-0.763-1.105-0.634s-0.767 0.62-0.638 1.099c0.129 0.479 0.624 0.763 1.105 0.634s0.767-0.62 0.638-1.099z"></path>
<path fill="#eb5569" style="fill: var(--color4, #eb5569)" d="M15.966 13.677c-0.108-0.402-0.524-0.64-0.928-0.533s-0.644 0.521-0.536 0.923c0.108 0.402 0.524 0.64 0.928 0.533s0.644-0.521 0.536-0.923z"></path>
</symbol>
<symbol id="icon-video" viewBox="0 0 32 32">
<path fill="none"   stroke-linejoin="miter" stroke-linecap="butt" stroke-miterlimit="4" stroke-width="0.7273" d="M31.636 16c0 8.636-7.001 15.636-15.636 15.636s-15.636-7.001-15.636-15.636c0-8.636 7.001-15.636 15.636-15.636s15.636 7.001 15.636 15.636z"></path>
<path fill="none"  stroke-linejoin="miter" stroke-linecap="butt" stroke-miterlimit="4" stroke-width="0.7273" d="M13.697 12.011l6.909 3.989-6.909 3.989v-7.978z"></path>
</symbol>
<symbol id="icon-person" viewBox="0 0 29 32">
<path fill="#ec5863" style="fill: var(--color1, #ec5863)" d="M28.266 11.226h-9.393v20.515h-3.131v-9.469h-3.131v9.468h-3.131v-20.515h-9.393v-3.156h28.18v3.156zM14.176 0.18c0.83 0 1.627 0.333 2.214 0.924s0.917 1.395 0.917 2.232-0.33 1.64-0.917 2.232c-0.587 0.592-1.384 0.924-2.214 0.924s-1.627-0.333-2.214-0.924c-0.587-0.592-0.917-1.395-0.917-2.232 0-1.752 1.393-3.156 3.131-3.156z"></path>
</symbol>
<symbol id="icon-doctor" viewBox="0 0 30 32">
<path fill="#ec5863" style="fill: var(--color1, #ec5863)" d="M14.784 0.28c-2.559 0-4.091 0.388-5.064 0.873-0.487 0.243-0.834 0.498-1.066 0.759-0.234 0.261-0.381 0.645-0.381 0.645-0.038 0.098-0.064 0.2-0.076 0.303l-0.648 8.308c-0.009 0.051 0.008 0.134 0 0.189l-0.076 0.835c-0.007 0.075-0.007 0.152 0 0.227 0 4.006 3.29 7.283 7.311 7.283s7.311-3.278 7.311-7.283v-0.189c0-0.013 0-0.025 0-0.038l-0.724-9.333c-0.012-0.104-0.037-0.206-0.076-0.303 0 0-0.147-0.384-0.381-0.645-0.233-0.262-0.579-0.517-1.066-0.759-0.974-0.486-2.505-0.873-5.064-0.873zM14.784 19.702c-8.042 0-14.623 3.77-14.623 7.169v4.97h29.245v-4.97c0-3.229-5.949-6.786-13.442-7.132-0.393-0.026-0.787-0.038-1.181-0.038zM14.784 2.708c2.315 0 3.472 0.364 3.96 0.607 0.163 0.081 0.183 0.113 0.229 0.152l0.495 6.221c-1.121 0.068-2.649 0.303-4.684 0.303s-3.562-0.236-4.684-0.303l0.495-6.221c0.045-0.039 0.066-0.070 0.229-0.152 0.489-0.243 1.645-0.607 3.96-0.607zM13.793 3.922v1.442h-1.446v1.973h1.448v1.441h1.979v-1.442h1.448v-1.971h-1.448v-1.442h-1.98zM11.128 22.434l3.123 6.98h-11.653v-2.542c0-0.904 3.107-3.553 8.53-4.438zM18.439 22.434c5.423 0.886 8.53 3.534 8.53 4.438v2.542h-11.653l3.123-6.98z"></path>
</symbol>
<symbol id="icon-heart" viewBox="0 0 39 32">
<path fill="#ec5863" style="fill: var(--color1, #ec5863)" d="M10.775 0.424c-2.795 0-5.476 1.097-7.452 3.049s-3.087 4.6-3.087 7.361c0 0.946 0.172 1.893 0.422 2.839h7.818l2.434-6.379c0.575-1.514 2.836-1.666 3.564 0l3.967 10.164 1.131-2.688c0.249-0.625 0.92-1.098 1.744-1.098h16.825c0.249-0.946 0.422-1.893 0.422-2.839 0-2.761-1.11-5.409-3.087-7.361s-4.657-3.049-7.452-3.049c-3.564 0-6.707 1.76-8.623 4.429-1.916-2.669-5.059-4.429-8.623-4.429zM2.152 16.513c-0.508 0-0.996 0.199-1.355 0.554s-0.561 0.836-0.561 1.338c0 0.502 0.202 0.983 0.561 1.338s0.847 0.554 1.355 0.554h4.676l10.654 10.41c1.916 1.703 1.916 1.703 3.832 0l10.654-10.41h4.676c0.508 0 0.996-0.199 1.355-0.554s0.561-0.836 0.561-1.338c0-0.502-0.202-0.983-0.561-1.338s-0.847-0.554-1.355-0.554h-14.563l-1.782 4.353c-0.767 1.912-2.97 1.647-3.679 0.057l-3.928-10.088-1.84 4.41c-0.287 0.719-0.939 1.268-1.801 1.268h-6.898z"></path>
</symbol>
<symbol id="icon-pay-2" viewBox="0 0 31 32">
<path fill="#587eec" style="fill: var(--color1, #587eec)" d="M29.78 14.609c0 7.835-6.352 14.187-14.187 14.187s-14.187-6.352-14.187-14.187c0-7.835 6.352-14.187 14.187-14.187s14.187 6.352 14.187 14.187z"></path>
<path fill="#fff" style="fill: var(--color2, #fff)" d="M20.322 14.609l-7.093 4.095v-8.191l7.093 4.095z"></path>
</symbol>
<symbol id="icon-arrow" viewBox="0 0 28 32">
<path  d="M15.479 1.005c-0.694-0.694-1.82-0.694-2.514 0l-11.314 11.314c-0.694 0.694-0.694 1.82 0 2.514s1.82 0.694 2.514 0l10.057-10.057 10.057 10.057c0.694 0.694 1.82 0.694 2.514 0s0.694-1.82 0-2.514l-11.314-11.314zM16 30.545v-28.283h-3.556v28.283h3.556z"></path>
</symbol>
</defs>
</svg>
